<svg width="536" height="564" viewBox="0 0 536 564" fill="none" xmlns="http://www.w3.org/2000/svg">
<g filter="url(#filter0_d)">
<rect x="38" y="4.22656" width="490" height="490" fill="white"/>
</g>
<line x1="37.8867" y1="423.613" x2="527.728" y2="423.613" stroke="#574A42"/>
<line x1="37.8867" y1="353.613" x2="527.728" y2="353.613" stroke="#574A42"/>
<line x1="37.8867" y1="283.613" x2="527.728" y2="283.613" stroke="#574A42"/>
<line x1="37.8867" y1="213.613" x2="527.728" y2="213.613" stroke="#574A42"/>
<line x1="37.8867" y1="143.613" x2="527.728" y2="143.613" stroke="#574A42"/>
<line x1="38.0453" y1="73.6131" x2="527.887" y2="73.6131" stroke="#574A42"/>
<line x1="108.5" y1="4" x2="108.5" y2="494" stroke="#574A42"/>
<line x1="178.5" y1="4" x2="178.5" y2="494" stroke="#574A42"/>
<line x1="248.5" y1="4" x2="248.5" y2="494" stroke="#574A42"/>
<line x1="318.5" y1="4" x2="318.5" y2="494" stroke="#574A42"/>
<line x1="388.5" y1="4" x2="388.5" y2="494" stroke="#574A42"/>
<line x1="458.5" y1="4" x2="458.5" y2="494" stroke="#574A42"/>
<path d="M13.7063 58C13.4503 58 13.2263 57.92 13.0343 57.76C12.8743 57.6 12.7943 57.408 12.7943 57.184V50.896C12.7943 50.512 11.9783 50.16 10.3463 49.84C8.71428 49.52 7.37028 49.36 6.31428 49.36C6.25028 49.36 6.13828 49.6 5.97828 50.08C5.85028 50.56 5.75428 50.912 5.69028 51.136C5.27428 52.8 4.85828 54.576 4.44228 56.464L4.20228 57.52C4.13828 57.776 3.97828 57.904 3.72228 57.904C3.46628 57.904 3.22628 57.824 3.00228 57.664C2.81028 57.504 2.71428 57.312 2.71428 57.088L2.76228 56.992V56.944L3.29028 54.544C3.67428 53.04 4.01028 51.568 4.29828 50.128C4.61828 48.496 4.85828 47.44 5.01828 46.96C5.27428 45.904 5.78628 43.264 6.55428 39.04L6.84228 37.456C7.67428 32.528 8.25028 29.424 8.57028 28.144C8.73028 27.376 9.01828 26.24 9.43428 24.736C9.59428 24.096 9.81828 23.456 10.1063 22.816C10.3943 22.272 10.6343 22 10.8263 22C11.3383 22 11.7063 22.16 11.9303 22.48C12.0903 22.768 12.3303 24.352 12.6503 27.232C13.0023 30.112 13.3063 33.024 13.5623 35.968L14.1863 43.936C14.1863 45.312 14.2823 47.392 14.4743 50.176C14.6663 52.992 14.7623 55.088 14.7623 56.464V56.656C14.7623 57.008 14.7143 57.328 14.6183 57.616C14.4903 57.872 14.1863 58 13.7063 58ZM11.7863 48.736C12.4263 48.736 12.7463 48.576 12.7463 48.256C12.7463 46.272 12.6343 43.568 12.4103 40.144C12.1863 36.688 11.9463 33.648 11.6903 31.024C11.6263 29.904 11.4983 28.672 11.3063 27.328L11.1143 25.456C11.1143 25.488 11.0823 25.312 11.0183 24.928L10.9223 24.352C10.6663 25.056 10.4103 26.032 10.1543 27.28C9.93028 28.528 9.69028 30 9.43428 31.696C8.66628 36.464 8.01028 40.048 7.46628 42.448L7.03428 44.08C6.55428 45.68 6.31428 46.896 6.31428 47.728V48.016C7.72228 48.464 9.33828 48.688 11.1623 48.688H11.4503C11.5463 48.72 11.6583 48.736 11.7863 48.736Z" fill="black"/>
<path d="M6.95828 129.288C5.77428 129.288 5.18228 129.064 5.18228 128.616C5.18228 127.272 5.23028 125.24 5.32628 122.52L5.42228 116.472C5.42228 114.232 5.37428 110.888 5.27828 106.44C5.15028 102.504 5.08628 99.176 5.08628 96.456C5.08628 94.152 5.50228 93 6.33428 93C8.47828 93 10.1263 93.688 11.2783 95.064C12.4623 96.44 13.0543 98.264 13.0543 100.536C13.0543 103.096 12.0303 105.752 9.98228 108.504C11.6783 110.2 12.8623 111.816 13.5343 113.352C14.2383 114.888 14.5903 116.728 14.5903 118.872C14.5903 120.184 14.5423 121.24 14.4463 122.04C14.3823 122.808 14.2383 123.528 14.0143 124.2C13.7903 124.904 13.4703 125.512 13.0543 126.024C12.6703 126.536 12.1423 127.016 11.4703 127.464C10.8303 127.912 9.99828 128.36 8.97428 128.808C8.59028 128.904 8.27028 128.984 8.01428 129.048C7.59828 129.208 7.27828 129.288 7.05428 129.288H6.95828ZM6.91028 108.264C7.61428 108.264 8.28628 107.96 8.92628 107.352C9.56628 106.744 10.0943 105.944 10.5103 104.952C10.9263 104.024 11.2463 103.064 11.4703 102.072C11.6943 101.048 11.8063 100.12 11.8063 99.288C11.8063 98.168 11.3903 97.112 10.5583 96.12C9.75828 95.128 8.84628 94.632 7.82228 94.632C6.99028 94.632 6.57428 95.32 6.57428 96.696C6.57428 98.84 6.60628 100.76 6.67028 102.456L6.76628 108.216L6.91028 108.264ZM7.29428 127.416C8.38228 127.416 9.37428 127.096 10.2703 126.456C11.1983 125.784 11.9183 124.904 12.4303 123.816C12.9743 122.728 13.2463 121.56 13.2463 120.312C13.2463 114.584 11.8703 111.144 9.11828 109.992C8.86228 109.992 8.44628 110.072 7.87028 110.232C7.32628 110.424 6.95828 110.52 6.76628 110.52C6.92628 115.736 7.00628 121.352 7.00628 127.368H7.15028L7.29428 127.416Z" fill="black"/>
<path d="M11.2783 200.768C10.3823 200.768 9.43828 200.416 8.44628 199.712C7.45428 199.008 6.75028 198.208 6.33428 197.312C5.95028 196.48 5.55028 193.84 5.13428 189.392C4.75028 184.944 4.55828 181.632 4.55828 179.456V176.912C4.52628 176.176 4.51028 175.36 4.51028 174.464C4.51028 172.8 4.60628 171.152 4.79828 169.52C4.92628 168.72 5.08628 168.032 5.27828 167.456C5.50228 166.88 5.80628 166.32 6.19028 165.776C6.89428 164.688 7.95028 163.968 9.35828 163.616C10.0943 163.424 10.9103 163.328 11.8063 163.328C12.4143 163.328 13.0223 163.504 13.6303 163.856C14.2703 164.208 14.5903 164.624 14.5903 165.104C14.5903 165.456 14.3343 165.632 13.8223 165.632C13.6303 165.632 13.2623 165.52 12.7183 165.296C12.2383 165.072 11.8063 164.96 11.4223 164.96C10.5263 164.96 9.71028 165.152 8.97428 165.536C8.27028 165.888 7.71028 166.368 7.29428 166.976C6.94228 167.488 6.63828 168.192 6.38228 169.088C6.12628 169.984 5.96628 170.88 5.90228 171.776C5.80628 172.576 5.75828 173.536 5.75828 174.656L5.80628 177.344C5.83828 178.112 5.85428 178.944 5.85428 179.84C5.85428 182.048 6.07828 185.296 6.52628 189.584C6.97428 193.872 7.40628 196.352 7.82228 197.024C8.20628 197.632 8.76628 198.096 9.50228 198.416C10.2703 198.736 11.0703 198.896 11.9023 198.896C13.3743 198.896 14.4943 198.432 15.2623 197.504C15.5503 197.12 15.8543 196.928 16.1743 196.928C16.4623 196.928 16.6063 197.152 16.6063 197.6C16.6063 198.176 16.4303 198.688 16.0783 199.136C15.7263 199.552 15.2463 199.872 14.6383 200.096C13.6143 200.544 12.4943 200.768 11.2783 200.768Z" fill="black"/>
<path d="M5.65028 271.096C5.26628 271.096 4.88228 271 4.49828 270.808C4.11428 270.616 3.92228 270.392 3.92228 270.136C3.92228 269.944 4.05028 269.624 4.30628 269.176C4.56228 268.76 4.67428 268.44 4.64228 268.216L4.49828 263.992L4.16228 250.888L4.06628 245.08C4.03428 241.528 3.95428 239.304 3.82628 238.408C3.76228 238.056 3.63428 237.656 3.44228 237.208C3.21828 236.6 3.10628 236.168 3.10628 235.912C3.10628 235.144 4.32228 234.76 6.75428 234.76H6.99428C8.62628 234.76 10.0343 235.32 11.2183 236.44C12.1463 237.304 12.9783 238.664 13.7143 240.52C14.2263 241.992 14.6103 243.64 14.8663 245.464C14.9943 246.424 15.1063 247.896 15.2023 249.88V251.368C15.2023 253.352 14.9303 255.512 14.3863 257.848C13.8743 260.152 13.1383 262.312 12.1783 264.328C11.6023 265.608 10.8503 266.76 9.92228 267.784C9.02628 268.808 8.16228 269.624 7.33028 270.232C6.49828 270.808 5.93828 271.096 5.65028 271.096ZM6.37028 268.648C7.55428 268.04 8.61028 267.16 9.53828 266.008C10.4663 264.824 11.2023 263.528 11.7463 262.12C12.2263 260.936 12.6263 259.592 12.9463 258.088C13.2663 256.552 13.4903 255.128 13.6183 253.816C13.7143 252.664 13.7623 251.56 13.7623 250.504C13.7623 241.16 11.1863 236.488 6.03428 236.488C5.36228 236.488 5.02628 236.664 5.02628 237.016C5.02628 238.136 5.09028 239.464 5.21828 241C5.34628 242.568 5.41028 243.896 5.41028 244.984C5.41028 246.744 5.53828 249.8 5.79428 254.152C6.01828 257.928 6.13028 260.968 6.13028 263.272V268.648H6.37028Z" fill="black"/>
<path d="M9.05428 342.288C8.28628 342.288 7.74228 342.208 7.42228 342.048C7.13428 341.92 6.99028 341.648 6.99028 341.232V340.32C6.95828 340.064 6.94228 339.776 6.94228 339.456V339.36L6.99028 332.352L6.94228 312.528C6.94228 310.48 6.91028 308.704 6.84628 307.2C6.84628 306.816 6.92628 306.496 7.08628 306.24C7.24628 305.984 7.45428 305.856 7.71028 305.856H10.6863C11.1343 305.856 11.4703 305.888 11.6943 305.952C12.0143 306.048 12.1743 306.32 12.1743 306.768C12.1743 307.024 12.0783 307.232 11.8863 307.392C11.6943 307.552 11.4863 307.648 11.2623 307.68H10.4463L9.67828 307.632L8.91028 307.584C8.68628 307.584 8.52628 307.632 8.43028 307.728C8.36628 307.792 8.33428 307.936 8.33428 308.16C8.33428 309.664 8.35028 311.024 8.38228 312.24V316.32V322.32C8.38228 322.384 8.41428 322.416 8.47828 322.416H8.52628H8.57428C9.37428 322.352 10.2383 322.32 11.1663 322.32C11.6783 322.32 11.9343 322.544 11.9343 322.992C11.9343 323.312 11.8703 323.536 11.7423 323.664C11.6463 323.76 11.4703 323.808 11.2143 323.808H8.47828C8.35028 323.808 8.28628 323.888 8.28628 324.048L8.38228 331.152C8.44628 333.36 8.47828 335.904 8.47828 338.784V340.56H10.5423H12.5583H12.9903C13.5663 340.56 13.8543 340.768 13.8543 341.184C13.8543 341.696 13.7103 342 13.4223 342.096C13.0383 342.224 12.2543 342.288 11.0703 342.288H9.05428Z" fill="black"/>
<path d="M8.41028 403.209C7.89828 403.209 7.64228 402.793 7.64228 401.961V398.409L7.49828 395.481C7.21028 390.233 7.06628 386.377 7.06628 383.913C7.06628 382.569 6.89028 378.377 6.53828 371.337C6.47428 369.801 6.42628 368.825 6.39428 368.409C6.36228 367.961 6.34628 367.721 6.34628 367.689V367.353C6.34628 367.129 6.50628 366.985 6.82628 366.921C7.01828 366.857 7.57828 366.825 8.50628 366.825H9.56228H10.9063C11.1623 366.825 11.3543 366.937 11.4823 367.161C11.6103 367.353 11.6743 367.609 11.6743 367.929C11.6743 368.249 11.3863 368.409 10.8103 368.409L9.70628 368.361H8.45828C8.20228 368.361 8.04228 368.409 7.97828 368.505C7.91428 368.601 7.88228 368.857 7.88228 369.273C7.88228 369.913 7.99428 372.249 8.21828 376.281C8.44228 380.313 8.55428 382.665 8.55428 383.337C8.93828 383.337 9.48228 383.241 10.1863 383.049C10.9223 382.857 11.4663 382.761 11.8183 382.761C12.0103 382.761 12.1703 382.873 12.2983 383.097C12.4583 383.321 12.5383 383.529 12.5383 383.721C12.5383 384.073 12.2823 384.313 11.7703 384.441C11.2583 384.537 10.5223 384.617 9.56228 384.681C8.89028 384.777 8.55428 384.969 8.55428 385.257C8.55428 386.697 8.71428 389.385 9.03428 393.321C9.32228 396.905 9.46628 399.609 9.46628 401.433L9.32228 401.673C9.41828 401.897 9.46628 402.105 9.46628 402.297C9.46628 402.905 9.11428 403.209 8.41028 403.209Z" fill="black"/>
<path d="M10.0663 484.768C7.66628 484.768 5.89028 483.04 4.73828 479.584C3.58628 476.128 3.01028 470.752 3.01028 463.456C3.01028 461.888 3.04228 460.496 3.10628 459.28C3.17028 457.808 3.39428 456.224 3.77828 454.528C3.93828 453.664 4.13028 452.912 4.35428 452.272C4.61028 451.632 4.94628 450.96 5.36228 450.256C6.09828 448.976 7.12228 448.08 8.43428 447.568C9.13828 447.312 9.87428 447.184 10.6423 447.184C11.6023 447.184 12.0823 447.456 12.0823 448C12.0823 448.384 11.8423 448.576 11.3623 448.576C11.2343 448.576 11.0103 448.528 10.6903 448.432L10.0183 448.336C8.96228 448.336 8.05028 448.768 7.28228 449.632C6.73828 450.272 6.21028 451.376 5.69828 452.944C5.34628 454.224 5.10628 455.648 4.97828 457.216C4.88228 458.08 4.78628 459.488 4.69028 461.44L4.64228 464.608V467.248C4.64228 470.352 4.86628 473.184 5.31428 475.744C5.63428 477.344 6.00228 478.672 6.41828 479.728C6.86628 480.784 7.45828 481.648 8.19428 482.32C8.99428 483.056 9.85828 483.424 10.7863 483.424C12.4823 483.424 13.8423 482.624 14.8663 481.024C14.8663 480.16 14.8023 479.024 14.6743 477.616C14.5783 476.912 14.4503 476.256 14.2903 475.648C14.0983 475.104 13.8743 474.832 13.6183 474.832L12.7063 474.928L11.6983 475.024C10.9623 475.024 10.5943 474.752 10.5943 474.208C10.5943 473.952 11.0423 473.712 11.9383 473.488C12.8343 473.264 13.5863 473.152 14.1943 473.152C14.7063 473.152 15.0743 473.344 15.2983 473.728C15.5543 474.08 15.6823 474.56 15.6823 475.168C15.6823 475.872 15.8423 477.296 16.1623 479.44C16.4823 481.232 16.6423 482.656 16.6423 483.712C16.6423 484.224 16.4343 484.48 16.0183 484.48C15.2503 484.48 14.8663 484.128 14.8663 483.424L14.9143 483.28V483.184C13.0903 484.24 11.4743 484.768 10.0663 484.768Z" fill="black"/>
<path d="M70.78 554.894C70.372 554.894 70.084 554.834 69.916 554.714C69.748 554.594 69.664 554.33 69.664 553.922C69.664 553.658 69.724 553.478 69.844 553.382C69.964 553.286 70.216 553.238 70.6 553.238C71.128 553.238 71.392 553.034 71.392 552.626C71.392 550.25 71.212 546.746 70.852 542.114C70.492 537.458 70.312 534.002 70.312 531.746C70.312 531.53 70.324 531.326 70.348 531.134V530.45C70.348 529.322 69.94 528.758 69.124 528.758H68.728L68.296 528.794C67.6 528.794 67.252 528.53 67.252 528.002C67.252 527.378 68.224 527.066 70.168 527.066C71.2 527.066 71.812 527.27 72.004 527.678C71.86 528.326 71.788 528.83 71.788 529.19C71.788 529.838 71.884 530.93 72.076 532.466C72.244 533.834 72.328 534.938 72.328 535.778C72.328 537.482 72.46 540.314 72.724 544.274C72.988 547.778 73.12 550.634 73.12 552.842V553.058C73.216 553.058 73.348 553.046 73.516 553.022C73.684 552.998 73.852 552.986 74.02 552.986C74.116 552.962 74.26 552.95 74.452 552.95C75.46 552.95 75.964 553.25 75.964 553.85C75.964 554.546 74.596 554.894 71.86 554.894H71.284H70.78Z" fill="black"/>
<path d="M137.06 555.002C136.7 555.002 136.388 554.906 136.124 554.714C135.884 554.498 135.764 554.234 135.764 553.922V553.778C136.244 553.202 136.724 552.242 137.204 550.898C137.42 550.25 137.6 549.782 137.744 549.494C139.16 546.35 140.192 543.518 140.84 540.998C141.488 538.478 141.812 535.814 141.812 533.006C141.812 530.006 141.236 528.47 140.084 528.398C139.7 528.59 139.436 529.154 139.292 530.09C139.244 530.474 139.124 530.798 138.932 531.062C138.74 531.302 138.5 531.422 138.212 531.422C137.636 531.422 137.348 531.05 137.348 530.306C137.348 529.178 137.684 528.23 138.356 527.462C138.716 527.078 139.148 526.886 139.652 526.886V526.85C140.468 526.85 141.152 527.03 141.704 527.39C142.112 527.63 142.496 528.086 142.856 528.758C143.048 529.142 143.228 529.778 143.396 530.666C143.444 531.098 143.468 531.506 143.468 531.89C143.492 532.25 143.516 532.514 143.54 532.682V533.654C143.54 535.286 143.336 537.062 142.928 538.982C142.544 540.878 142.076 542.57 141.524 544.058C140.9 545.762 140.276 547.382 139.652 548.918C138.908 550.79 138.368 552.23 138.032 553.238C139.4 552.998 140.816 552.878 142.28 552.878C142.784 553.238 143.036 553.574 143.036 553.886C143.036 554.174 142.88 554.438 142.568 554.678C142.112 554.678 141.464 554.714 140.624 554.786L139.832 554.822C138.824 554.942 137.9 555.002 137.06 555.002Z" fill="black"/>
<path d="M209.832 555.11C208.944 555.11 208.224 554.87 207.672 554.39C207.336 554.126 207.168 553.802 207.168 553.418C207.168 553.178 207.204 553.022 207.276 552.95C207.348 552.854 207.516 552.806 207.78 552.806C207.972 552.806 208.14 552.878 208.284 553.022C208.476 553.214 208.656 553.37 208.824 553.49C209.016 553.586 209.256 553.634 209.544 553.634C211.008 553.634 211.74 552.278 211.74 549.566C211.74 548.318 211.728 547.394 211.704 546.794C211.68 546.194 211.608 545.45 211.488 544.562C211.2 542.642 210.552 541.058 209.544 539.81C209.496 539.834 209.376 539.846 209.184 539.846C208.872 539.846 208.608 539.786 208.392 539.666C208.176 539.546 208.068 539.366 208.068 539.126C208.068 538.718 208.464 538.118 209.256 537.326C209.568 536.99 209.832 536.57 210.048 536.066C210.264 535.538 210.372 535.022 210.372 534.518C210.372 533.534 210.264 532.442 210.048 531.242C209.928 530.522 209.724 529.934 209.436 529.478C209.172 529.022 208.86 528.794 208.5 528.794C208.236 528.794 207.996 528.89 207.78 529.082C207.588 529.274 207.444 529.514 207.348 529.802C207.276 530.09 207.132 530.342 206.916 530.558C206.7 530.75 206.436 530.846 206.124 530.846C205.86 530.846 205.62 530.762 205.404 530.594C205.212 530.402 205.092 530.162 205.044 529.874C205.38 529.034 205.848 528.362 206.448 527.858C207.072 527.354 207.78 527.102 208.572 527.102C209.124 527.102 209.628 527.282 210.084 527.642C210.54 527.978 210.9 528.434 211.164 529.01C211.404 529.562 211.608 530.21 211.776 530.954C211.944 531.674 212.052 532.358 212.1 533.006C212.148 533.462 212.172 534.122 212.172 534.986C212.172 535.322 212.112 535.658 211.992 535.994C211.896 536.33 211.788 536.594 211.668 536.786C211.548 537.05 211.356 537.338 211.092 537.65L210.552 538.442C211.104 538.778 211.596 539.354 212.028 540.17C212.46 540.986 212.784 541.934 213 543.014C213.384 545.03 213.576 546.83 213.576 548.414C213.576 549.398 213.516 550.358 213.396 551.294C213.228 552.302 212.88 553.178 212.352 553.922C211.848 554.714 211.008 555.11 209.832 555.11Z" fill="black"/>
<path d="M281.272 555.434C280.936 555.434 280.66 555.254 280.444 554.894C280.228 554.534 280.12 554.138 280.12 553.706V553.598C280.24 553.118 280.3 552.686 280.3 552.302C280.3 551.87 280.264 551.282 280.192 550.538C280.096 549.842 280.048 549.254 280.048 548.774V547.982C280.072 547.766 280.084 547.514 280.084 547.226C280.084 546.962 280.06 546.59 280.012 546.11L279.076 546.218C278.596 546.29 278.248 546.326 278.032 546.326C277.576 546.326 277.108 546.134 276.628 545.75C276.628 545.246 276.688 544.778 276.808 544.346C276.688 543.746 276.628 543.074 276.628 542.33C276.628 541.634 276.724 540.398 276.916 538.622C277.084 537.086 277.168 535.874 277.168 534.986V528.326C277.168 528.014 277.252 527.822 277.42 527.75C277.54 527.678 277.684 527.642 277.852 527.642C278.164 527.642 278.416 527.726 278.608 527.894C278.824 528.038 278.932 528.242 278.932 528.506C278.932 529.034 278.908 529.502 278.86 529.91L278.788 531.314V531.638C278.764 531.734 278.752 531.842 278.752 531.962C278.752 532.154 278.776 532.37 278.824 532.61V532.754C278.896 533.354 278.932 533.99 278.932 534.662C278.932 535.838 278.848 537.362 278.68 539.234C278.512 541.106 278.428 542.63 278.428 543.806C278.428 543.974 278.452 544.25 278.5 544.634C279.052 544.586 279.484 544.514 279.796 544.418C279.796 543.554 279.856 541.862 279.976 539.342C280.072 537.326 280.12 535.67 280.12 534.374C280.12 534.134 280.216 533.942 280.408 533.798C280.624 533.63 280.84 533.546 281.056 533.546L281.632 534.194V535.922C281.632 539.042 281.608 541.826 281.56 544.274C281.584 544.274 281.62 544.274 281.668 544.274C281.74 544.25 281.848 544.238 281.992 544.238C282.16 544.214 282.364 544.202 282.604 544.202C283.324 544.202 283.684 544.454 283.684 544.958C283.684 545.534 283.204 545.822 282.244 545.822C281.836 545.822 281.632 545.93 281.632 546.146C281.632 547.154 281.668 548.33 281.74 549.674C281.812 550.994 281.908 551.774 282.028 552.014C281.98 552.206 281.956 552.434 281.956 552.698C281.956 553.01 282.004 553.25 282.1 553.418V554.066C282.1 554.45 282.028 554.774 281.884 555.038C281.764 555.302 281.56 555.434 281.272 555.434Z" fill="black"/>
<path d="M348.264 555.398C346.968 555.398 346.32 555.062 346.32 554.39C346.32 554.126 346.428 553.922 346.644 553.778C346.86 553.634 347.112 553.562 347.4 553.562C347.784 553.562 348.096 553.67 348.336 553.886C348.864 553.694 349.308 553.07 349.668 552.014C350.028 550.934 350.208 549.926 350.208 548.99C350.208 547.79 350.196 546.77 350.172 545.93C350.1 544.85 349.98 543.878 349.812 543.014C349.716 542.51 349.608 542.09 349.488 541.754C349.368 541.418 349.188 541.046 348.948 540.638C348.612 540.038 348.06 539.582 347.292 539.27C346.884 539.15 346.488 539.09 346.104 539.09C345.552 539.09 345.18 538.862 344.988 538.406C344.868 538.046 344.808 537.59 344.808 537.038C344.808 536.846 344.844 536.534 344.916 536.102L344.988 535.202C344.988 534.098 344.928 533.078 344.808 532.142L344.34 529.154L344.124 527.678L344.736 527.03H347.652C348.66 527.03 349.164 527.342 349.164 527.966V528.146L348.48 528.686H347.58V528.578H346.068C346.092 529.778 346.32 532.634 346.752 537.146L347.472 537.218C348 537.266 348.504 537.35 348.984 537.47C349.248 537.542 349.476 537.65 349.668 537.794C350.172 538.154 350.616 538.958 351 540.206C351.384 541.43 351.636 542.702 351.756 544.022C351.876 545.294 351.936 546.326 351.936 547.118C351.936 548.222 351.912 549.134 351.864 549.854C351.84 550.358 351.792 550.766 351.72 551.078C351.648 551.366 351.528 551.762 351.36 552.266C351.216 552.674 351.036 553.034 350.82 553.346C350.628 553.658 350.364 553.994 350.028 554.354C349.692 554.69 349.308 555.038 348.876 555.398H348.624H348.264Z" fill="black"/>
<path d="M416.544 555.002C415.416 555.002 414.576 554.27 414.024 552.806C413.448 551.366 413.1 549.722 412.98 547.874C412.836 546.194 412.764 544.346 412.764 542.33V540.638V539.27C412.764 531.014 414.06 526.886 416.652 526.886C416.844 526.886 417.024 526.958 417.192 527.102C417.384 527.246 417.48 527.414 417.48 527.606C417.48 527.894 417.348 528.158 417.084 528.398C416.82 528.614 416.496 528.758 416.112 528.83C415.824 529.094 415.548 529.874 415.284 531.17C415.044 532.442 414.864 533.762 414.744 535.13L414.564 538.082C414.804 538.034 414.984 538.01 415.104 538.01C415.656 538.01 416.16 538.19 416.616 538.55C417.072 538.91 417.456 539.39 417.768 539.99C418.296 540.974 418.728 542.462 419.064 544.454C419.256 545.99 419.376 547.502 419.424 548.99V550.61C419.424 551.066 419.412 551.498 419.388 551.906C419.364 552.29 419.304 552.674 419.208 553.058C419.088 553.49 418.932 553.838 418.74 554.102C418.548 554.366 418.26 554.582 417.876 554.75C417.468 554.918 417.024 555.002 416.544 555.002ZM416.832 553.454C417.456 553.454 417.768 552.638 417.768 551.006C417.768 549.59 417.624 547.466 417.336 544.634C417.144 543.05 416.892 541.814 416.58 540.926C416.22 539.918 415.8 539.354 415.32 539.234C415.008 539.474 414.792 539.738 414.672 540.026C414.576 540.314 414.528 540.71 414.528 541.214C414.528 541.862 414.54 542.39 414.564 542.798L414.6 544.13C414.624 545.474 414.708 546.83 414.852 548.198C414.972 549.47 415.2 550.694 415.536 551.87C415.848 552.926 416.28 553.454 416.832 553.454Z" fill="black"/>
<path d="M481.628 554.318C481.628 553.886 481.76 553.25 482.024 552.41L482.276 551.546C483.236 547.994 483.992 544.202 484.544 540.17C485.12 536.114 485.444 532.226 485.516 528.506C485.276 528.458 485 528.434 484.688 528.434C484.448 528.434 483.68 528.506 482.384 528.65L481.16 528.758C480.92 528.638 480.716 528.494 480.548 528.326C480.404 528.134 480.332 527.93 480.332 527.714C480.332 527.21 481.844 526.958 484.868 526.958H485.516C485.9 526.958 486.176 526.982 486.344 527.03C486.536 527.054 486.728 527.138 486.92 527.282C487.064 527.378 487.208 527.606 487.352 527.966C486.968 529.838 486.452 534.014 485.804 540.494C485.588 542.822 485.288 545.126 484.904 547.406C484.544 549.662 484.148 551.414 483.716 552.662V552.986C483.716 553.466 483.572 553.91 483.284 554.318C483.02 554.726 482.696 554.93 482.312 554.93L481.628 554.318Z" fill="black"/>
<defs>
<filter id="filter0_d" x="30" y="0.226562" width="506" height="506" filterUnits="userSpaceOnUse" color-interpolation-filters="sRGB">
<feFlood flood-opacity="0" result="BackgroundImageFix"/>
<feColorMatrix in="SourceAlpha" type="matrix" values="0 0 0 0 0 0 0 0 0 0 0 0 0 0 0 0 0 0 127 0"/>
<feOffset dy="4"/>
<feGaussianBlur stdDeviation="4"/>
<feColorMatrix type="matrix" values="0 0 0 0 0 0 0 0 0 0 0 0 0 0 0 0 0 0 0.3 0"/>
<feBlend mode="normal" in2="BackgroundImageFix" result="effect1_dropShadow"/>
<feBlend mode="normal" in="SourceGraphic" in2="effect1_dropShadow" result="shape"/>
</filter>
</defs>
</svg>
