<svg width="44" height="29" viewBox="0 0 44 29" fill="none" xmlns="http://www.w3.org/2000/svg">
<path d="M11.528 28.936C11.288 28.936 11.096 28.816 10.952 28.576C10.808 28.336 10.736 27.988 10.736 27.532L10.7 22.204C10.676 21.748 10.664 20.992 10.664 19.936C10.616 17.704 10.592 15.184 10.592 12.376V10.54C10.376 11.692 10.004 13.312 9.476 15.4C8.948 17.56 8.576 19.336 8.36 20.728V20.944L8.252 21.628C8.204 22.156 8.084 22.696 7.892 23.248C7.652 23.824 7.28 24.112 6.776 24.112C5.912 24.112 5.48 22.984 5.48 20.728C5.48 19.48 5.348 18.148 5.084 16.732C4.844 15.292 4.448 13.528 3.896 11.44L2.816 7.408L2.744 11.728C2.744 13.024 2.804 15.496 2.924 19.144L2.996 21.592L3.068 26.524C3.068 27.028 2.888 27.484 2.528 27.892C1.928 27.892 1.508 27.712 1.268 27.352C1.052 26.968 0.944 26.416 0.944 25.696L1.016 22.744C1.088 21.448 1.124 20.476 1.124 19.828L1.052 12.88L0.98 5.896C0.98 4.864 1.004 3.316 1.052 1.252L2.024 0.675998C2.216 0.699999 2.408 0.843999 2.6 1.108C2.792 1.348 3.008 1.744 3.248 2.296C3.848 3.784 4.628 6.76 5.588 11.224C5.732 11.848 5.828 12.364 5.876 12.772C6.164 14.164 6.368 15.22 6.488 15.94L7.028 18.712L7.28 17.524L7.964 14.572C8.348 12.844 8.66 11.332 8.9 10.036C9.164 8.74 9.416 7.336 9.656 5.824C9.92 4.024 10.088 2.524 10.16 1.324V1.108C10.208 0.795998 10.352 0.555999 10.592 0.387999C10.832 0.195999 11.12 0.0999987 11.456 0.0999987C11.672 0.0999987 11.864 0.195999 12.032 0.387999C12.2 0.579998 12.284 0.783998 12.284 0.999998C12.284 3.88 12.392 8.188 12.608 13.924C12.728 16.732 12.812 19.48 12.86 22.168C12.908 23.392 12.932 24.94 12.932 26.812C12.932 27.364 12.788 27.856 12.5 28.288C12.212 28.72 11.888 28.936 11.528 28.936ZM19.7405 27.964C17.6765 27.964 16.6445 27.604 16.6445 26.884C16.6445 26.308 17.0045 26.02 17.7245 26.02H18.1565C18.2525 26.044 18.3605 26.056 18.4805 26.056C18.6725 26.056 18.8045 25.996 18.8765 25.876C18.9725 25.756 19.0205 25.54 19.0205 25.228C19.0205 23.188 18.9005 20.404 18.6605 16.876C18.4445 13.204 18.3365 10.432 18.3365 8.56C18.3365 7.888 18.3485 7.276 18.3725 6.724L18.4085 4.888C18.4085 4.096 18.3725 3.436 18.3005 2.908C18.0365 3.004 17.7605 3.052 17.4725 3.052C16.9205 3.052 16.6445 2.764 16.6445 2.188C16.6445 1.9 16.8125 1.648 17.1485 1.432C17.5085 1.216 17.9645 1.06 18.5165 0.963998C19.5245 0.795999 20.3765 0.711999 21.0725 0.711999C21.3605 0.711999 21.6005 0.807999 21.7925 0.999998C22.0085 1.192 22.1165 1.42 22.1165 1.684C22.1165 1.948 22.0325 2.176 21.8645 2.368C21.7205 2.56 21.5285 2.656 21.2885 2.656C21.1445 2.656 21.0245 2.644 20.9285 2.62H20.6405C20.4005 2.62 20.2205 2.68 20.1005 2.8C20.0045 2.896 19.9565 3.088 19.9565 3.376C19.9565 5.92 20.1125 9.424 20.4245 13.888C20.7125 18.568 20.8565 22.084 20.8565 24.436V25.804C21.0245 25.78 21.2645 25.768 21.5765 25.768C22.5845 25.768 23.0885 26.188 23.0885 27.028V27.244L22.1885 27.856C22.1645 27.856 22.0925 27.868 21.9725 27.892C21.8525 27.892 21.6125 27.892 21.2525 27.892C20.4365 27.94 19.9325 27.964 19.7405 27.964ZM28.7706 28.792C27.9066 28.792 27.1626 28.636 26.5386 28.324C26.1546 28.108 25.9626 27.856 25.9626 27.568C25.9626 27.28 26.0346 27.052 26.1786 26.884C26.3226 26.692 26.5266 26.596 26.7906 26.596C27.0306 26.596 27.3786 26.692 27.8346 26.884C28.3386 27.076 28.6506 27.172 28.7706 27.172C29.2266 27.172 29.6346 26.98 29.9946 26.596C30.3786 26.188 30.6786 25.66 30.8946 25.012C31.3266 23.812 31.5426 22.732 31.5426 21.772C31.5426 20.74 31.3746 19.66 31.0386 18.532C30.7266 17.38 30.2946 16.264 29.7426 15.184L29.1666 14.032C28.5666 12.832 28.0986 11.884 27.7626 11.188C27.4506 10.492 27.1746 9.736 26.9346 8.92C26.5746 7.768 26.3946 6.652 26.3946 5.572C26.3946 4.708 26.5386 3.892 26.8266 3.124C27.1386 2.356 27.5946 1.708 28.1946 1.18C28.7946 0.603998 29.5386 0.315998 30.4266 0.315998C30.8586 0.315998 31.2786 0.447999 31.6866 0.711999C32.0946 0.951999 32.3826 1.264 32.5506 1.648L31.9386 2.404C31.3146 2.404 30.8466 2.284 30.5346 2.044C30.1026 2.092 29.7186 2.308 29.3826 2.692C29.0706 3.052 28.8306 3.472 28.6626 3.952C28.5186 4.408 28.4466 4.864 28.4466 5.32C28.4466 6.232 28.5666 7.168 28.8066 8.128C29.0706 9.064 29.4066 9.952 29.8146 10.792L32.3346 15.832C32.7426 16.696 33.0666 17.668 33.3066 18.748C33.5466 19.828 33.6666 20.908 33.6666 21.988C33.6666 23.572 33.2826 25.06 32.5146 26.452C32.1066 27.172 31.5786 27.736 30.9306 28.144C30.2826 28.576 29.5626 28.792 28.7706 28.792ZM38.9308 28.792C38.0668 28.792 37.3228 28.636 36.6988 28.324C36.3148 28.108 36.1228 27.856 36.1228 27.568C36.1228 27.28 36.1948 27.052 36.3388 26.884C36.4828 26.692 36.6868 26.596 36.9508 26.596C37.1908 26.596 37.5388 26.692 37.9948 26.884C38.4988 27.076 38.8108 27.172 38.9308 27.172C39.3868 27.172 39.7948 26.98 40.1548 26.596C40.5388 26.188 40.8388 25.66 41.0548 25.012C41.4868 23.812 41.7028 22.732 41.7028 21.772C41.7028 20.74 41.5348 19.66 41.1988 18.532C40.8868 17.38 40.4548 16.264 39.9028 15.184L39.3268 14.032C38.7268 12.832 38.2588 11.884 37.9228 11.188C37.6108 10.492 37.3348 9.736 37.0947 8.92C36.7348 7.768 36.5548 6.652 36.5548 5.572C36.5548 4.708 36.6988 3.892 36.9868 3.124C37.2988 2.356 37.7548 1.708 38.3548 1.18C38.9548 0.603998 39.6988 0.315998 40.5868 0.315998C41.0188 0.315998 41.4388 0.447999 41.8468 0.711999C42.2548 0.951999 42.5428 1.264 42.7108 1.648L42.0988 2.404C41.4748 2.404 41.0068 2.284 40.6948 2.044C40.2628 2.092 39.8788 2.308 39.5428 2.692C39.2308 3.052 38.9908 3.472 38.8228 3.952C38.6788 4.408 38.6068 4.864 38.6068 5.32C38.6068 6.232 38.7268 7.168 38.9668 8.128C39.2308 9.064 39.5668 9.952 39.9748 10.792L42.4948 15.832C42.9028 16.696 43.2268 17.668 43.4668 18.748C43.7068 19.828 43.8268 20.908 43.8268 21.988C43.8268 23.572 43.4428 25.06 42.6748 26.452C42.2668 27.172 41.7388 27.736 41.0908 28.144C40.4428 28.576 39.7228 28.792 38.9308 28.792Z" fill="black"/>
</svg>
