<svg width="40" height="41" viewBox="0 0 40 41" fill="none" xmlns="http://www.w3.org/2000/svg">
<path d="M13.2224 23.5815C10.1934 25.0922 7.30464 26.5283 3.64569 27.593V20.4992C3.64569 19.947 3.91902 19.4308 4.37549 19.1204L7.10797 17.2623C7.34137 17.1036 7.76327 16.9738 8.04549 16.9738H12.4324V14.3898H17.3685V16.9738H21.1509C21.7648 16.9738 22.2624 17.4714 22.2624 18.0853V19.6213C18.7852 20.8087 15.9825 22.2053 13.2224 23.5815ZM12.4324 11.8383V13.1791H17.3685V11.8383C17.3685 11.1513 16.8116 10.5946 16.1248 10.5946H13.6759C12.9891 10.5946 12.4324 11.1513 12.4324 11.8383ZM9.56549 7.92906C9.92065 7.92906 10.2586 7.85599 10.5659 7.72501C10.9147 8.20808 11.479 8.52553 12.1203 8.52553C12.3296 8.52553 12.5274 8.4837 12.7159 8.42181C12.7129 8.45658 12.7055 8.49004 12.7055 8.52553C12.7055 9.18311 13.2385 9.71605 13.896 9.71605C14.5535 9.71605 15.0865 9.18305 15.0865 8.52553C15.0865 7.86802 14.5535 7.33501 13.896 7.33501C13.8958 7.33501 13.8955 7.33508 13.8952 7.33508C13.988 7.10978 14.0407 6.86377 14.0407 6.60508C14.0407 5.54442 13.1809 4.68456 12.1203 4.68456C12.085 4.68456 12.0521 4.69305 12.0173 4.69495C11.7183 3.61599 10.7396 2.81946 9.56549 2.81946C8.15451 2.81946 7.01072 3.96325 7.01072 5.37423C7.01072 6.78521 8.15451 7.92906 9.56549 7.92906ZM34.5722 32.9356C34.3252 33.3117 34.3185 33.7954 34.5682 34.1696L36.0404 36.3762C36.5784 37.1808 35.9521 38.2514 34.9872 38.1768L2.24961 35.6049C1.35902 35.535 0.614575 34.9088 0.387582 34.0447C0.189085 33.2888 0 32.3508 0 31.5198C0 29.8108 0.686994 29.4919 2.09222 29.1566C14.6584 26.1581 18.1148 18.9304 39.0823 17.7471C39.6269 17.7164 40.065 18.1922 39.992 18.7328C39.3707 23.3356 37.1761 28.9706 34.5722 32.9356ZM32.9722 27.5336C32.9722 27.2264 32.7235 26.9777 32.4163 26.9777C32.1091 26.9777 31.8606 27.2264 31.8606 27.5336C31.8606 28.3919 31.2876 29.1111 30.5069 29.3507V25.5192C30.9248 25.3121 31.2146 24.8855 31.2146 24.3876C31.2146 23.6878 30.6473 23.1205 29.9475 23.1205C29.2477 23.1205 28.6804 23.6878 28.6804 24.3876C28.6804 24.8885 28.9735 25.3174 29.3953 25.5231V29.3507C28.6146 29.1111 28.0416 28.3919 28.0416 27.5336C28.0416 27.2264 27.793 26.9777 27.4858 26.9777C27.1786 26.9777 26.93 27.2264 26.93 27.5336C26.93 29.1992 28.2852 30.5545 29.951 30.5545C31.6169 30.5545 32.9722 29.1993 32.9722 27.5336Z" fill="#22201E"/>
</svg>
